<svg
  width="22"
  height="22"
  viewBox="0 0 22 22"
  fill="current"
  stroke="current"
  xmlns="http://www.w3.org/2000/svg"
>
  <path
    d="M21.4069 9.56894C21.4063 9.56844 21.4058 9.56793 21.4053 9.56743L12.4311 0.593506C12.0486 0.210815 11.54 0 10.999 0C10.458 0 9.94947 0.210648 9.56678 0.593338L0.597221 9.56273C0.5942 9.56575 0.591179 9.56894 0.588157 9.57196C-0.197365 10.362 -0.196022 11.6439 0.592018 12.4319C0.952049 12.7921 1.42756 13.0007 1.93597 13.0226C1.95661 13.0246 1.97742 13.0256 1.9984 13.0256H2.35609V19.6298C2.35609 20.9367 3.41939 22 4.72658 22H8.2376C8.59344 22 8.88213 21.7115 8.88213 21.3555V16.1777C8.88213 15.5814 9.36721 15.0963 9.96357 15.0963H12.0345C12.6308 15.0963 13.1159 15.5814 13.1159 16.1777V21.3555C13.1159 21.7115 13.4044 22 13.7604 22H17.2714C18.5786 22 19.6419 20.9367 19.6419 19.6298V13.0256H19.9736C20.5144 13.0256 21.023 12.8149 21.4058 12.4322C22.1947 11.6429 22.1951 10.3588 21.4069 9.56894Z"
    fill="current"
  />
</svg>
