<svg
  width="22"
  height="22"
  viewBox="0 0 22 22"
  fill="current"
  stroke="current"
  xmlns="http://www.w3.org/2000/svg"
>
  <g clip-path="url(#clip0_561_164)">
    <path
      d="M18.7344 1.33234H16.1563C15.8986 1.33234 15.6803 1.48569 15.5771 1.70393L19.3789 4.55525V1.97687C19.3789 1.62061 19.0906 1.33234 18.7344 1.33234Z"
      fill="current"
    />
    <path
      d="M21.7416 7.90658L11.3863 0.129327C11.1572 -0.0431497 10.8425 -0.0431497 10.6134 0.129327L0.25807 7.90658C0.0956914 8.02806 0 8.2194 0 8.42208V12.2892C0 12.6455 0.288277 12.9338 0.644531 12.9338H2.62105V9.71114C2.62105 9.50846 2.71674 9.31712 2.87912 9.19565L10.6134 3.39491C10.8425 3.22243 11.1572 3.22243 11.3863 3.39491L19.1206 9.1956C19.283 9.31708 19.3786 9.50842 19.3786 9.7111V12.9337H21.3552C21.7114 12.9337 21.9997 12.6454 21.9997 12.2892V8.42204C21.9997 8.21944 21.904 8.02806 21.7416 7.90658Z"
      fill="current"
    />
    <path
      d="M11 9.71112C11.3563 9.71112 11.6446 9.9994 11.6446 10.3557V11.1266C11.9785 11.2393 12.3039 11.4186 12.5944 11.7001C12.8499 11.9475 12.8562 12.3553 12.6082 12.6115C12.3608 12.8677 11.9517 12.8734 11.6968 12.6253C11.3833 12.3213 11.0346 12.2168 10.7495 12.3396C10.5103 12.4409 10.3555 12.6738 10.3555 12.9338C10.3555 13.2894 10.6444 13.5783 11 13.5783C12.0662 13.5783 12.9336 14.4457 12.9336 15.5119C12.9336 16.3219 12.4224 17.0521 11.6615 17.329C11.6559 17.331 11.6501 17.3301 11.6445 17.332V18.0899C11.6445 18.4462 11.3562 18.7345 11 18.7345C13.4874 18.7345 15.5116 16.7103 15.5116 14.2228C15.5116 11.7353 13.4875 9.71112 11 9.71112Z"
      fill="current"
    />
    <path
      d="M10.9999 14.8673C9.93364 14.8673 9.06632 14 9.06632 12.9338C9.06632 12.1552 9.52957 11.4559 10.2465 11.1526C10.282 11.1375 10.3196 11.1384 10.3554 11.1256V10.3557C10.3554 9.99946 10.6437 9.71118 10.9999 9.71118C8.51245 9.71114 6.48828 11.7354 6.48828 14.2228C6.48828 16.7102 8.51245 18.7344 11 18.7344C10.6437 18.7344 10.3554 18.4462 10.3554 18.0899V17.3276C9.93094 17.1842 9.5242 16.912 9.17649 16.4975C8.94738 16.2249 8.98262 15.8183 9.25581 15.5899C9.52836 15.362 9.93558 15.3966 10.1634 15.6692C10.5046 16.0752 10.8904 16.2363 11.2203 16.118C11.4739 16.0254 11.6445 15.7818 11.6445 15.5118C11.6444 15.1563 11.3555 14.8673 10.9999 14.8673Z"
      fill="current"
    />
    <path
      d="M10.9999 4.71606L3.91016 10.0334V21.3555C3.91016 21.7114 4.19873 22 4.55469 22H17.4451C17.8011 22 18.0897 21.7114 18.0897 21.3555V10.0334L10.9999 4.71606ZM16.5917 15.7985C16.078 17.7349 14.5121 19.301 12.5756 19.8147C8.16698 20.9842 4.23848 17.0557 5.40792 12.647C5.92161 10.7105 7.48756 9.14447 9.42408 8.63078C13.8327 7.46142 17.7612 11.3899 16.5917 15.7985Z"
      fill="current"
    />
  </g>
  <defs>
    <clipPath id="clip0_561_164">
      <rect width="22" height="22" fill="white" />
    </clipPath>
  </defs>
</svg>
